<svg width="151" height="28" viewBox="0 0 151 28" fill="none" xmlns="http://www.w3.org/2000/svg">
<path d="M9.44693 0.472676C7.28705 1.05832 5.31774 2.21584 3.73897 3.82771C2.1602 5.43958 1.0282 7.4484 0.457915 9.65016C-1.19142 16.0637 1.76713 22.0014 6.68544 24.7929C6.76751 24.8368 6.85929 24.8584 6.95195 24.8557C7.04461 24.853 7.13503 24.8261 7.21449 24.7774C7.29396 24.7288 7.35979 24.6602 7.40566 24.5781C7.45152 24.496 7.47587 24.4033 7.47637 24.3088V13.4757C7.47637 13.341 7.47637 13.2007 7.47637 13.0907C7.56275 9.19638 11.6442 6.28664 15.688 8.34381C16.6171 8.81234 17.3658 9.58387 17.8151 10.5357C19.7695 14.6941 16.846 18.7864 12.9885 18.7864C12.5686 18.7861 12.1501 18.7363 11.7414 18.6379C11.646 18.6128 11.5462 18.6102 11.4496 18.6303C11.3531 18.6504 11.2623 18.6927 11.1842 18.754C11.1061 18.8153 11.0428 18.8939 10.999 18.9838C10.9552 19.0738 10.9322 19.1728 10.9316 19.2732V25.5767C10.9311 25.7726 11.0016 25.9618 11.1297 26.108C11.2577 26.2542 11.4342 26.3471 11.6253 26.3688C12.0736 26.4191 12.5241 26.4448 12.9751 26.4458C14.6798 26.4465 16.368 26.1051 17.9432 25.4411C19.5185 24.7771 20.95 23.8035 22.1559 22.5759C23.3618 21.3483 24.3186 19.8907 24.9717 18.2863C25.6247 16.682 25.9612 14.9623 25.9619 13.2255C25.9619 4.75202 18.1417 -1.85951 9.44693 0.472676Z" fill="#622AFF"/>
<path d="M31.3428 13.3248C31.3428 8.60268 34.3121 4.84863 38.9389 4.84863C43.6413 4.84863 46.6025 8.60268 46.6025 13.3248C46.6025 18.0469 43.6332 21.834 38.9389 21.834C34.304 21.834 31.3428 18.0497 31.3428 13.3248ZM44.7588 13.3248C44.7588 9.74953 42.6884 6.42451 38.9389 6.42451C35.2569 6.42451 33.1514 9.74128 33.1514 13.3248C33.1514 16.9084 35.2569 20.2609 38.9389 20.2609C42.6884 20.2609 44.7588 16.9441 44.7588 13.3248Z" fill="white"/>
<path d="M52.0607 18.8198V27.3069C52.0566 27.3814 52.0246 27.4513 51.9714 27.5025C51.9182 27.5536 51.8477 27.5821 51.7746 27.582H50.6327C50.5611 27.582 50.4925 27.553 50.4419 27.5014C50.3912 27.4498 50.3628 27.3799 50.3628 27.3069V5.54169C50.3628 5.46875 50.3912 5.3988 50.4419 5.34722C50.4925 5.29564 50.5611 5.26667 50.6327 5.26667H51.7746C51.8477 5.26655 51.9182 5.29499 51.9714 5.34614C52.0246 5.39729 52.0566 5.46727 52.0607 5.54169V7.79687C52.685 6.89358 53.5117 6.15494 54.4722 5.64221C55.4327 5.12949 56.4994 4.85744 57.5837 4.84863C61.8245 4.84863 64.6858 8.1324 64.6858 13.3248C64.6858 18.5172 61.8164 21.834 57.5837 21.834C56.4931 21.8209 55.4216 21.5402 54.4602 21.0154C53.4987 20.4907 52.6757 19.7375 52.0607 18.8198ZM62.8448 13.3193C62.8448 9.40025 60.8392 6.41901 57.2868 6.41901C55.0841 6.41901 52.9812 7.75837 52.0607 9.30124V17.3264C52.6357 18.209 53.4107 18.9377 54.3203 19.4508C55.2299 19.964 56.2474 20.2465 57.2868 20.2746C60.8392 20.2609 62.8448 17.2466 62.8448 13.3248V13.3193Z" fill="white"/>
<path d="M68.6648 18.3166V6.79314H66.3001C66.2285 6.79314 66.1598 6.76416 66.1092 6.71258C66.0586 6.66101 66.0302 6.59105 66.0302 6.51811V5.54178C66.0336 5.46713 66.0654 5.39676 66.1188 5.34547C66.1721 5.29418 66.2429 5.26597 66.3163 5.26676H68.6621V1.14143C68.6602 1.10417 68.6659 1.06693 68.6786 1.03196C68.6914 0.996986 68.7109 0.965022 68.7362 0.938009C68.7614 0.910996 68.7918 0.889499 68.8255 0.874826C68.8592 0.860153 68.8954 0.852611 68.932 0.852657H70.1062C70.144 0.850682 70.1817 0.856799 70.217 0.870612C70.2522 0.884425 70.2843 0.905628 70.311 0.932847C70.3377 0.960066 70.3585 0.992697 70.3721 1.02863C70.3856 1.06456 70.3916 1.10299 70.3897 1.14143V5.26676H73.3293C73.3659 5.2649 73.4025 5.27063 73.4368 5.28361C73.4711 5.2966 73.5025 5.31656 73.529 5.34229C73.5555 5.36801 73.5766 5.39897 73.591 5.43326C73.6054 5.46756 73.6128 5.50448 73.6128 5.54178V6.50436C73.6147 6.54281 73.6087 6.58123 73.5951 6.61717C73.5816 6.6531 73.5608 6.68573 73.5341 6.71295C73.5073 6.74016 73.4753 6.76137 73.4401 6.77518C73.4048 6.78899 73.3671 6.79511 73.3293 6.79314H70.4059V18.0498C70.4059 19.3561 70.9323 20.25 72.0498 20.25C72.6037 20.2421 73.1396 20.0488 73.575 19.6999C73.6075 19.6731 73.6458 19.6544 73.6866 19.6453C73.7275 19.6361 73.7699 19.6368 73.8105 19.6472C73.851 19.6576 73.8887 19.6774 73.9204 19.7052C73.9522 19.733 73.9772 19.7679 73.9934 19.8072L74.3875 20.6267C74.4172 20.6822 74.4272 20.7464 74.4159 20.8085C74.4046 20.8706 74.3726 20.9268 74.3254 20.9678C73.7288 21.4876 72.9946 21.8258 71.788 21.8258C69.6824 21.8341 68.6648 20.5277 68.6648 18.3166Z" fill="white"/>
<path d="M76.2582 1.37514C76.2646 1.02375 76.4062 0.688995 76.6527 0.443069C76.8991 0.197142 77.2305 0.0597541 77.5755 0.0605358C77.747 0.0572457 77.9174 0.088819 78.0767 0.153409C78.2361 0.218 78.3812 0.314312 78.5036 0.436713C78.626 0.559115 78.7232 0.70515 78.7896 0.86628C78.8559 1.02741 78.8901 1.2004 78.8901 1.37514C78.8894 1.73014 78.7506 2.07039 78.5043 2.32141C78.2579 2.57243 77.9239 2.71377 77.5755 2.7145C77.2292 2.70615 76.8992 2.56244 76.654 2.31312C76.4088 2.0638 76.2671 1.72797 76.2582 1.37514ZM76.7198 21.152V5.54173C76.7197 5.50442 76.7271 5.4675 76.7415 5.4332C76.7559 5.39891 76.777 5.36796 76.8036 5.34223C76.8301 5.3165 76.8614 5.29654 76.8958 5.28356C76.9301 5.27057 76.9666 5.26484 77.0032 5.2667H78.145C78.1816 5.26484 78.2182 5.27057 78.2525 5.28356C78.2868 5.29654 78.3182 5.3165 78.3447 5.34223C78.3712 5.36796 78.3923 5.39891 78.4067 5.4332C78.4211 5.4675 78.4285 5.50442 78.4285 5.54173V21.1437C78.4304 21.1822 78.4244 21.2206 78.4109 21.2565C78.3973 21.2925 78.3765 21.3251 78.3498 21.3523C78.3231 21.3795 78.291 21.4007 78.2558 21.4145C78.2205 21.4284 78.1828 21.4345 78.145 21.4325H77.0032C76.9655 21.4345 76.9278 21.4284 76.8925 21.4145C76.8572 21.4007 76.8252 21.3795 76.7985 21.3523C76.7718 21.3251 76.751 21.2925 76.7374 21.2565C76.7238 21.2206 76.7178 21.1822 76.7198 21.1437V21.152Z" fill="white"/>
<path d="M82.2103 13.3248C82.2103 8.60268 85.1797 4.84863 89.8065 4.84863C94.5088 4.84863 97.4674 8.60268 97.4674 13.3248C97.4674 18.0469 94.498 21.834 89.8065 21.834C85.1689 21.834 82.2103 18.0497 82.2103 13.3248ZM95.6264 13.3248C95.6264 9.74953 93.5559 6.42451 89.8065 6.42451C86.1245 6.42451 84.0189 9.74128 84.0189 13.3248C84.0189 16.9084 86.1245 20.2609 89.8065 20.2609C93.5559 20.2609 95.6264 16.9441 95.6264 13.3248Z" fill="white"/>
<path d="M104.243 19.1882V27.3069C104.239 27.3813 104.207 27.4513 104.154 27.5024C104.1 27.5536 104.03 27.582 103.957 27.5819H101.074C101.037 27.5838 101.001 27.578 100.966 27.565C100.932 27.5521 100.901 27.5321 100.874 27.5064C100.848 27.4806 100.827 27.4497 100.812 27.4154C100.798 27.3811 100.79 27.3442 100.79 27.3069V5.54163C100.79 5.50432 100.798 5.4674 100.812 5.4331C100.827 5.39881 100.848 5.36785 100.874 5.34213C100.901 5.3164 100.932 5.29644 100.966 5.28346C101.001 5.27047 101.037 5.26474 101.074 5.2666H103.957C104.03 5.26648 104.1 5.29492 104.154 5.34607C104.207 5.39723 104.239 5.4672 104.243 5.54163V7.46678C104.832 6.65491 105.6 5.99531 106.486 5.54105C107.371 5.08678 108.348 4.85054 109.339 4.85132C113.448 4.85132 116.374 8.00307 116.374 13.3275C116.374 18.6519 113.448 21.8367 109.339 21.8367C107.334 21.8339 105.547 20.9016 104.243 19.1882ZM112.835 13.3248C112.835 10.1757 111.048 7.97557 108.319 7.97557C106.699 7.97557 105.031 8.9134 104.243 10.1207V16.5013C104.999 17.7059 106.707 18.7014 108.319 18.7014C111.048 18.7207 112.835 16.4738 112.835 13.3248Z" fill="white"/>
<path d="M128.902 21.1438V19.6586C127.72 21.064 125.846 21.8341 123.741 21.8341C121.176 21.8341 118.25 20.0244 118.25 16.4739C118.25 12.7226 121.144 11.1825 123.741 11.1825C125.9 11.1825 127.72 11.8865 128.902 13.2589V10.8469C128.902 8.97128 127.358 7.82169 125.188 7.82169C123.528 7.80833 121.93 8.46258 120.742 9.64233C120.711 9.67272 120.674 9.69574 120.634 9.70967C120.594 9.72361 120.551 9.7281 120.509 9.72281C120.466 9.71753 120.426 9.7026 120.39 9.67915C120.354 9.65569 120.324 9.62431 120.302 9.58733L119.157 7.66217C119.124 7.60426 119.111 7.53659 119.12 7.47017C119.129 7.40375 119.161 7.3425 119.208 7.29639C121.02 5.60226 123.257 4.84595 125.714 4.84595C129.264 4.84595 132.354 6.35582 132.354 10.6764V21.1438C132.356 21.1822 132.35 21.2206 132.337 21.2566C132.323 21.2925 132.302 21.3251 132.276 21.3523C132.249 21.3796 132.217 21.4008 132.182 21.4146C132.146 21.4284 132.109 21.4345 132.071 21.4325H129.188C129.151 21.4329 129.113 21.4257 129.079 21.4113C129.044 21.397 129.013 21.3758 128.986 21.3489C128.959 21.3221 128.938 21.2901 128.924 21.2549C128.909 21.2197 128.902 21.1819 128.902 21.1438ZM128.902 17.7472V15.272C128.092 14.1719 126.602 13.5971 125.123 13.5971C123.185 13.5971 121.705 14.7687 121.705 16.5124C121.705 18.256 123.185 19.4249 125.123 19.4249C126.602 19.4221 128.081 18.8528 128.902 17.7472Z" fill="white"/>
<path d="M135.95 24.961C135.956 24.92 135.971 24.8808 135.994 24.8462C136.016 24.8116 136.046 24.7824 136.08 24.7604C136.115 24.7385 136.154 24.7245 136.194 24.7192C136.235 24.7139 136.276 24.7176 136.315 24.73C136.642 24.8271 136.981 24.8789 137.321 24.884C138.439 24.884 139.162 24.5484 139.621 23.4759L140.412 21.6332L134.028 5.65167C134.006 5.60746 133.996 5.55793 133.999 5.50836C134.002 5.45878 134.018 5.411 134.046 5.3701C134.074 5.3292 134.112 5.29671 134.156 5.27607C134.201 5.25543 134.25 5.24742 134.298 5.25289H137.4C137.458 5.24958 137.516 5.26577 137.565 5.29901C137.614 5.33225 137.65 5.38075 137.67 5.43716L142.237 17.3786L146.802 5.43716C146.821 5.38075 146.858 5.33225 146.906 5.29901C146.955 5.26577 147.013 5.24958 147.072 5.25289H150.138C150.185 5.25155 150.232 5.26225 150.274 5.28403C150.316 5.30581 150.353 5.33798 150.379 5.37761C150.406 5.41723 150.423 5.46306 150.428 5.51093C150.433 5.55879 150.426 5.60717 150.408 5.65167L142.906 24.3532C141.827 27.1034 139.937 27.9697 137.481 28.0055C136.918 27.9934 136.358 27.9355 135.804 27.8322C135.768 27.8263 135.733 27.813 135.702 27.7929C135.671 27.7729 135.645 27.7467 135.624 27.7158C135.603 27.6849 135.589 27.65 135.582 27.6133C135.575 27.5765 135.575 27.5387 135.583 27.5022L135.95 24.961Z" fill="white"/>
</svg>
